<svg class="site-logo" version="1.0" xmlns="http://www.w3.org/2000/svg" xmlns:xlink="http://www.w3.org/1999/xlink" viewBox="0 70 340 100">
  <g fill="#fff" class="linesvg" transform="translate(48.11000061035156,82.79656219482422)">
    <polyline stroke="#fff" stroke-width="2" fill-opacity="0" points="0,30.20343780517578 0,0 30.20343780517578,0"></polyline>
    <polyline stroke="#fff" stroke-width="2" fill-opacity="0" points="213.5765609741211,84.40687561035156 243.77999877929688,84.40687561035156 243.77999877929688,54.20343780517578"></polyline>
    <g fill="#fff" transform="translate(12,12)">
      <g class="tp-name" transform="translate(0,0)">
        <g>
          <path
            d="M14.80-31.36C13.54-32.49 9.27-35.10 6.84-36.31L3.10-30.46C5.44-29.07 9.67-26.28 11.12-25.06ZM34.56-2.38L34.56-5.63L40.77-5.63L40.77-11.56L34.56-11.56L34.56-14.85L40.77-14.85L40.77-20.84L34.56-20.84L34.56-24.07L41.67-24.07L41.67-30.78L35.77-30.78C35.55-32.09 35.01-34.42 34.74-35.46L27.18-35.46C27.31-34.83 27.99-32.35 28.35-30.78L23.89-30.78C24.39-32.45 24.79-34.06 25.11-35.68L17.59-36C16.52-30.64 15.12-26.68 11.74-21.06C9.63-22.54 7.25-24.07 5.31-25.11L1.35-19.13C3.55-17.77 7.33-15.07 9.86-13.14L12.11-16.65L13.63-12.15L15.25-14.08L15.25 4.41L42.61 4.41L42.61-2.38ZM27.77-20.84L22.41-20.84L22.41-24.07L27.77-24.07ZM27.77-11.56L22.41-11.56L22.41-14.85L27.77-14.85ZM9.76 4.77C10.62 1.53 12.42-6.66 13.00-9.95L6.03-11.92C5.44-8.46 3.73-0.77 2.52 2.88ZM22.41-5.63L27.77-5.63L27.77-2.38L22.41-2.38ZM84.96-7.60C84.87-6.93 84.69-6.08 84.47-5.13C84.06-3.55 83.75-3.10 83.16-3.10C82.62-3.10 81.85-3.51 81.27-5.80C81.27-5.94 81.22-5.94 81.22-6.08C83.34-10.21 85.14-14.89 86.89-20.61L82.03-22.41C81.36-20.02 80.59-17.64 79.65-15.30C79.33-17.86 79.11-20.84 78.88-24.43L86.67-24.43L86.67-31.41L85.14-31.41C84.64-32.85 84.28-34.34 83.61-35.95L78.93-35.19L80.28-31.41L78.53-31.41C78.39-33.34 78.39-34.96 78.25-36.54L71.73-36.72L72-31.41L59.63-31.41L59.63-19.71C59.63-9.99 59.17-5.71 58.00-2.25C57.87-5.44 57.87-7.15 57.73-8.55L56.47-8.23L56.47-18.59L58.27-18.59L58.27-26.32L56.47-26.32L56.47-36.54L49.86-36.72L49.86-26.32L47.25-26.32L47.25-18.59L49.86-18.59L49.86-6.79L45.99-5.94L46.80 1.89C48.96 1.53 54.36 0.22 57.28-0.49C56.79 0.54 56.38 1.48 55.71 2.56L61.96 5.35C63.22 2.52 64.03 0.36 64.53-2.70L66.24 2.70L67.63 2.52C69.03 2.34 70.02 2.11 70.74 1.71L74.20 4.46C75.24 3.24 76.09 2.16 76.95 0.94C78.53 4.23 80.46 5.22 82.30 5.22C84.42 5.22 85.77 3.92 87.21-1.44C87.57-2.83 87.75-3.51 87.97-4.91ZM72.36-2.65C72.50-7.47 72.54-14.35 72.67-20.97L66.15-20.97L66.15-24.43L72.90-24.43C73.44-16.34 74.16-10.39 74.92-6.12C74.11-4.86 73.26-3.65 72.36-2.48ZM67.36-7.38C67.23-5.63 66.96-5.17 65.47-5.04L64.84-4.95C65.07-7.33 65.20-10.21 65.25-13.99L67.45-13.99ZM131.26-13.05L131.26-21.51L91.39-21.51L91.39-13.05ZM172.08-11.34L172.08-35.05L139.72-35.05L139.72-11.34ZM165.01-28.08L165.01-18.18L146.74-18.18L146.74-28.08ZM158.62-5.71C162.22-2.83 167.71 2.16 171.22 5.67L176.44-0.49C173.70-2.88 167.26-7.96 163.66-10.62ZM140.44 5.08C144.81 1.80 149.67-2.02 153.04-5.63L147.60-10.57C143.82-6.75 139.27-3.42 135.13-0.72ZM216.18-33.48L216.18-36.49L209.52-36.67L209.52-33.48L205.38-33.48L205.38-36.49L198.67-36.67L198.67-33.48L195.03-33.48L195.03-32.94L191.56-36.41C190.57-35.14 189.41-33.84 188.01-32.45C187.33-33.75 186.52-35.10 185.67-36.54L180.09-34.02C181.17-31.90 182.11-29.83 182.97-27.81C181.89-26.91 180.81-26.10 179.73-25.33L181.84-17.95C183.10-18.86 184.27-19.71 185.49-20.75C185.76-19.89 185.98-19.04 186.16-18.18C184.32-16.25 181.39-14.35 179.10-12.78L180.81-4.50C182.74-5.89 185.31-7.96 187.33-10.35C187.38-9.99 187.38-9.67 187.38-9.31C187.38-2.97 186.48-2.61 184.14-2.38L181.71-2.16L183.73 5.26L187.11 5.04C192.33 4.68 193.81 3.51 193.81-6.08C193.81-14.49 193.05-20.25 191.02-25.83C192.42-27.22 193.77-28.71 195.03-30.29L195.03-26.59L198.67-26.59L198.67-23.85L205.38-23.85L205.38-26.59L209.52-26.59L209.52-23.85L216.18-23.85L216.18-26.59L221.13-26.59L221.13-33.48ZM195.57 4.50L219.24 4.50L219.24-22.90L195.57-22.90ZM204.75-16.25L204.75-12.42L201.82-12.42L201.82-16.25ZM212.85-12.42L209.97-12.42L209.97-16.25L212.85-16.25ZM201.82-6.21L204.75-6.21L204.75-2.21L201.82-2.21ZM209.97-2.21L209.97-6.21L212.85-6.21L212.85-2.21Z"
            transform="translate(-1.35, 36.72)"></path>
        </g> <!----> <!----> <!----> <!----> <!----> <!----> <!----></g>
      <g class="tp-slogan" transform="translate(27.110000610351562,49.38999938964844)"><!----> <!----> <!---->
        <g>
          <path
            d="M7.64-9.66L7.64-9.66Q8.72-9.33 8.91-9L8.91-9Q8.91-8.91 8.72-8.77L8.72-8.77Q8.48-8.58 8.34-8.44L8.34-8.44Q8.02-8.16 7.45-7.27L7.45-7.27L8.39-7.27Q9.33-7.27 10.45-7.36L10.45-7.36L10.45-6.28Q9.61-6.38 8.39-6.38L8.39-6.38L6.33-6.38L6.33-4.13L8.63-4.13Q10.03-4.17 10.92-4.27L10.92-4.27L10.92-3.19Q9.94-3.28 8.63-3.28L8.63-3.28L6.47-3.28Q8.02-0.47 11.44-0.28L11.44-0.28Q10.64 0.19 10.31 0.89L10.31 0.89Q7.41 0.05 6-2.48L6-2.48Q4.88-0.14 1.55 1.13L1.55 1.13Q1.03 0.42 0.42 0.09L0.42 0.09Q4.45-0.70 5.20-3.28L5.20-3.28L2.95-3.28Q1.83-3.28 0.98-3.19L0.98-3.19L0.98-4.27Q1.97-4.22 2.95-4.17L2.95-4.17L5.34-4.17L5.34-6.38L3.52-6.38Q2.44-6.38 1.45-6.28L1.45-6.28L1.45-7.36Q2.58-7.27 3.52-7.27L3.52-7.27L6.47-7.27Q7.22-8.53 7.64-9.66ZM3-9.09L4.03-9.56Q4.41-9.09 5.16-8.02L5.16-8.02Q5.25-7.97 5.25-7.92L5.25-7.92L4.17-7.36Q3.84-8.06 3-9.09L3-9.09ZM18.42-9.33L19.55-9.66Q19.73-9.23 19.78-9.09L19.78-9.09Q19.83-8.95 19.88-8.86L19.88-8.86Q19.88-8.77 20.16-8.02L20.16-8.02L19.03-7.73Q18.84-8.48 18.42-9.33L18.42-9.33ZM13.41-8.39L14.11-9.19Q15.14-8.39 15.89-7.78L15.89-7.78L15.14-6.89Q14.34-7.73 13.41-8.39L13.41-8.39ZM23.06-7.64L23.06-7.64L23.06-6.56Q22.36-6.66 21-6.66L21-6.66L19.88-6.66L19.88-4.27L20.91-4.27Q21.89-4.27 22.59-4.36L22.59-4.36L22.59-3.33Q22.59-3.38 20.86-3.38L20.86-3.38L19.88-3.38L19.88-0.33L20.91-0.33Q22.13-0.33 23.25-0.42L23.25-0.42L23.25 0.56Q22.22 0.47 20.95 0.47L20.95 0.47L17.48 0.47Q16.45 0.47 15.38 0.52L15.38 0.52L15.38-0.38Q15.70-0.38 16.50-0.33L16.50-0.33Q17.25-0.33 17.48-0.33L17.48-0.33L18.80-0.33L18.80-3.38L17.91-3.38Q16.55-3.38 16.17-3.33L16.17-3.33L16.17-4.41Q16.69-4.27 18-4.27L18-4.27L18.80-4.27L18.80-6.66L17.91-6.66Q16.22-6.66 15.98-6.61L15.98-6.61L15.98-7.64Q15.98-7.64 16.17-7.64L16.17-7.64Q17.48-7.55 17.91-7.55L17.91-7.55L21-7.55Q22.45-7.59 23.06-7.64ZM12.70-5.72L13.31-6.61Q14.53-5.81 15.23-5.20L15.23-5.20L14.53-4.31Q13.73-5.06 12.70-5.72L12.70-5.72ZM14.25-3.84L14.25-3.84Q14.81-3.38 15.28-3.23L15.28-3.23Q14.67-0.98 13.97 0.89L13.97 0.89L12.80 0.14Q13.69-1.55 14.25-3.84ZM25.13-7.83L25.13-8.86Q25.45-8.77 26.95-8.77L26.95-8.77L33.19-8.77Q34.31-8.77 34.64-8.86L34.64-8.86L34.64-7.83Q34.36-7.88 33.19-7.88L33.19-7.88L28.92-7.88L28.59-6.19L31.97-6.19Q32.72-6.19 33.33-6.28L33.33-6.28Q33.05-4.69 32.72-1.92L32.72-1.92Q32.58-0.89 32.53-0.61L32.53-0.61L33.75-0.61Q35.02-0.61 35.34-0.70L35.34-0.70L35.34 0.28Q35.02 0.19 33.80 0.19L33.80 0.19L26.30 0.19Q24.98 0.19 24.61 0.28L24.61 0.28L24.61-0.70Q24.61-0.70 24.66-0.70L24.66-0.70Q24.94-0.61 26.25-0.61L26.25-0.61L31.59-0.61L31.83-2.39L28.08-2.39Q27-2.39 26.81-2.30L26.81-2.30Q27.42-4.45 27.94-7.88L27.94-7.88L26.86-7.88Q25.41-7.88 25.13-7.83L25.13-7.83ZM31.88-3.23L32.11-5.30L28.41-5.30L28.03-3.23L31.88-3.23ZM45.09-9.75L45.09-9.75Q46.36-9.38 46.41-9.23L46.41-9.23Q46.41-9.19 46.31-9.05L46.31-9.05Q46.03-8.81 45.89-8.53L45.89-8.53Q45.75-8.25 45.47-7.83L45.47-7.83Q45.19-7.36 45.09-7.22L45.09-7.22L45.28-7.22Q46.45-7.22 46.92-7.31L46.92-7.31L46.92-6.28Q45.98-6.38 45.33-6.38L45.33-6.38L44.44-6.38L44.44-4.22L45.19-4.22Q46.50-4.27 47.25-4.31L47.25-4.31L47.25-3.28Q46.88-3.33 45.23-3.33L45.23-3.33L44.53-3.33Q45.33-1.03 47.63-0.05L47.63-0.05Q47.02 0.28 46.64 1.03L46.64 1.03Q44.53-0.70 44.16-2.20L44.16-2.20Q43.73-0.33 41.77 1.13L41.77 1.13Q41.63 0.89 40.92 0.19L40.92 0.19Q40.88 0.14 40.88 0.14L40.88 0.14Q42.98-0.66 43.45-3.38L43.45-3.38L43.17-3.38Q41.91-3.38 41.16-3.28L41.16-3.28L41.16-4.31Q42-4.27 43.08-4.22L43.08-4.22L43.50-4.22L43.50-6.38L43.31-6.38Q42.14-6.33 41.39-6.28L41.39-6.28L41.39-7.31Q42.19-7.27 43.27-7.22L43.27-7.22L44.30-7.22Q44.86-8.34 45.09-9.75ZM42-9.33L43.08-9.66Q43.59-8.67 43.78-7.92L43.78-7.92L42.75-7.64Q42.38-8.77 42-9.33L42-9.33ZM39.89-6.42L39.89-7.92L38.30-7.92L38.30-6.42L39.89-6.42ZM39.89-5.58L38.30-5.58L38.30-3.98L39.89-3.98L39.89-5.58ZM39.89-3.19L38.30-3.19L38.30-1.45L39.89-1.73L39.89-3.19ZM40.92 1.22L40.92 1.22L39.80 1.22Q39.80 0.98 39.84 0.28L39.84 0.28Q39.84-0.33 39.84-0.52L39.84-0.52L39.84-0.84Q38.39-0.52 36.75 0L36.75 0L36.38-1.17L37.31-1.31L37.31-7.92Q36.89-7.92 36.52-7.88L36.52-7.88L36.52-9Q37.03-8.91 38.11-8.86L38.11-8.86L39.70-8.86Q41.06-8.91 41.63-9L41.63-9L41.63-7.92Q41.48-7.92 41.25-7.97L41.25-7.97Q40.97-7.97 40.83-7.97L40.83-7.97L40.83-1.92L41.77-2.06L41.67-1.13Q41.06-1.08 40.83-0.98L40.83-0.98L40.83-0.56Q40.83 0.47 40.92 1.22ZM49.41-9.23L49.41-9.23Q49.92-9.19 51.23-9.14L51.23-9.14L56.53-9.14Q58.13-9.19 58.64-9.23L58.64-9.23Q58.59-8.72 58.55-7.41L58.55-7.41L58.55-0.52Q58.92 1.08 56.44 1.08L56.44 1.08Q56.39 0.38 55.88-0.14L55.88-0.14Q57.89 0.23 57.56-0.80L57.56-0.80L57.56-8.25L50.44-8.25L50.44-1.17Q50.44 0.38 50.53 0.84L50.53 0.84L49.31 0.84Q49.45 0.05 49.45-1.13L49.45-1.13L49.45-7.22Q49.45-8.81 49.41-9.23ZM50.48-1.22L50.48-1.22Q51.47-2.44 52.17-4.13L52.17-4.13Q51.42-5.77 50.67-6.80L50.67-6.80Q51.05-6.89 51.56-7.08L51.56-7.08Q52.08-6.14 52.55-5.16L52.55-5.16Q52.97-6.42 53.06-7.59L53.06-7.59Q53.20-7.55 53.53-7.45L53.53-7.45Q54.33-7.22 54.23-7.17L54.23-7.17Q54.23-7.17 54.19-7.13L54.19-7.13Q54.05-6.98 53.91-6.70L53.91-6.70Q53.81-6.47 53.63-5.95L53.63-5.95Q53.30-5.02 53.02-4.27L53.02-4.27Q53.53-3.33 54.05-2.34L54.05-2.34Q53.95-2.30 53.81-2.20L53.81-2.20Q53.34-1.97 53.11-1.78L53.11-1.78Q52.88-2.67 52.59-3.28L52.59-3.28Q51.84-1.59 51.38-0.80L51.38-0.80Q51.14-1.03 50.48-1.22ZM55.27-3.98L55.27-3.98Q54.66-5.20 54.09-6L54.09-6Q53.95-6.23 53.86-6.38L53.86-6.38Q54.09-6.47 54.47-6.61L54.47-6.61Q54.66-6.70 54.75-6.75L54.75-6.75Q55.13-6 55.45-5.30L55.45-5.30Q55.59-4.92 55.64-5.02L55.64-5.02Q56.02-6.19 56.11-7.41L56.11-7.41Q57.28-7.22 57.33-7.08L57.33-7.08Q57.33-7.08 57.28-7.03L57.28-7.03Q57.14-6.89 57.05-6.75L57.05-6.75Q57-6.56 56.86-6.23L56.86-6.23Q56.72-5.67 56.11-4.03L56.11-4.03Q56.95-2.25 57.28-1.59L57.28-1.59Q57.19-1.55 56.95-1.45L56.95-1.45Q56.58-1.31 56.30-1.17L56.30-1.17Q56.02-2.06 55.69-3.09L55.69-3.09Q55.59-2.91 55.36-2.48L55.36-2.48Q54.75-1.45 54.33-0.75L54.33-0.75Q53.81-0.98 53.20-1.13L53.20-1.13Q54.66-2.30 55.27-3.98ZM61.45-8.16L61.45-9.23Q61.92-9.19 63.28-9.19L63.28-9.19L67.03-9.19Q68.72-9.19 69.42-9.28L69.42-9.28L67.92-5.86L68.53-5.86Q69.66-5.86 70.13-5.91L70.13-5.91Q69.23-3.05 67.78-1.41L67.78-1.41Q69.14-0.52 71.53-0.28L71.53-0.28Q70.92 0.14 70.73 0.80L70.73 0.80Q68.16 0.09 67.08-0.84L67.08-0.84Q65.72 0.23 63.56 0.89L63.56 0.89Q63.09 0.19 62.58-0.05L62.58-0.05Q64.45-0.23 66.47-1.45L66.47-1.45Q65.48-2.58 64.41-5.30L64.41-5.30Q63.98-1.83 61.41 0.47L61.41 0.47Q60.98 0.05 60.28-0.14L60.28-0.14Q63.61-1.88 63.84-8.20L63.84-8.20L63.28-8.20Q61.92-8.20 61.45-8.16L61.45-8.16ZM67.92-8.20L67.92-8.20L64.88-8.20Q64.78-7.31 64.45-5.44L64.45-5.44L65.39-5.67Q65.95-3.52 67.13-2.06L67.13-2.06Q68.30-3.23 68.77-4.92L68.77-4.92L66.38-4.92Q67.13-6.38 67.92-8.20ZM73.08-8.58L74.25-8.58L74.25 0L73.08 0L73.08-8.58ZM78.42-7.59L75.52-7.59L75.52-8.58L82.45-8.58L82.45-7.59L79.55-7.59L79.55 0L78.42 0L78.42-7.59ZM91.45-9.61L91.45-9.61Q92.63-9.61 92.81-9.42L92.81-9.42Q92.81-9.38 92.77-9.33L92.77-9.33Q92.53-9 92.53-8.44L92.53-8.44L92.53-3.23Q93.33-3.33 93.98-3.47L93.98-3.47L94.08-2.48Q93.42-2.44 92.53-2.39L92.53-2.39L92.53-0.42Q92.53 0.33 92.63 0.89L92.63 0.89Q92.63 0.98 92.63 1.03L92.63 1.03L91.41 1.03Q91.41 1.03 91.41 0.94L91.41 0.94Q91.55 0.33 91.55-0.42L91.55-0.42L91.55-2.30Q91.03-2.20 89.58-2.02L89.58-2.02Q88.36-1.88 88.08-1.83L88.08-1.83L88.03-2.81Q89.25-2.86 91.55-3.14L91.55-3.14L91.55-8.30Q91.55-8.91 91.45-9.47L91.45-9.47Q91.45-9.56 91.45-9.61ZM87.94-9.47L87.94-9.47Q88.50-8.81 88.50-8.48L88.50-8.48Q88.50-8.48 88.36-8.48L88.36-8.48Q87.61-8.48 86.48-8.25L86.48-8.25L86.48-6.28L87-6.28Q87.52-6.28 88.08-6.38L88.08-6.38Q88.17-6.38 88.22-6.38L88.22-6.38L88.22-5.39Q88.17-5.39 88.03-5.39L88.03-5.39Q87.56-5.48 87-5.48L87-5.48L86.48-5.48L86.48-1.27Q86.48 0.33 86.53 0.84L86.53 0.84L85.50 0.84Q85.64-0.19 85.64-1.27L85.64-1.27L85.64-4.22Q84.80-2.39 83.77-1.22L83.77-1.22Q83.53-1.78 83.11-2.06L83.11-2.06Q84.56-3.23 85.45-5.44L85.45-5.44L84.75-5.44Q84.28-5.44 83.63-5.34L83.63-5.34Q83.44-5.34 83.39-5.34L83.39-5.34L83.39-6.38Q83.44-6.38 83.58-6.33L83.58-6.33Q84.14-6.23 84.70-6.28L84.70-6.28L85.64-6.28L85.64-8.11Q85.03-8.02 84.23-7.83L84.23-7.83Q84.09-8.25 83.72-8.77L83.72-8.77Q85.97-8.86 87.94-9.47ZM88.88-7.92L89.72-8.39Q90.66-7.17 90.94-6.70L90.94-6.70L90.05-6.19Q89.34-7.36 88.88-7.92L88.88-7.92ZM88.69-5.16L89.48-5.63Q90.14-5.02 90.70-4.08L90.70-4.08L89.81-3.61Q89.25-4.55 88.69-5.16L88.69-5.16ZM86.53-4.27L86.53-4.27L87.23-4.78Q87.66-4.36 88.31-3.42L88.31-3.42L87.47-2.81Q87-3.75 86.53-4.27ZM101.58-9.66L101.58-9.66Q102.66-9.66 102.89-9.47L102.89-9.47Q102.89-9.42 102.84-9.28L102.84-9.28Q102.66-8.95 102.66-8.44L102.66-8.44L102.66-7.88L104.25-7.88Q104.77-7.88 105.52-7.92L105.52-7.92Q105.75-7.97 105.80-7.97L105.80-7.97L105.80-6.94Q105.75-6.94 105.61-6.94L105.61-6.94Q104.95-6.98 104.34-6.98L104.34-6.98L102.66-6.98L102.66-5.34Q103.08-5.30 104.34-5.39L104.34-5.39Q104.86-5.39 105-5.39L105-5.39Q104.06-2.48 102.89-1.17L102.89-1.17Q104.16-0.28 106.13-0.05L106.13-0.05Q105.70 0.23 105.42 0.98L105.42 0.98Q103.36 0.28 102.23-0.52L102.23-0.52Q100.73 0.52 99.28 1.13L99.28 1.13Q98.81 0.47 98.34 0.23L98.34 0.23Q99.52 0.05 101.53-1.13L101.53-1.13Q100.55-2.48 99.98-4.22L99.98-4.22L100.59-4.45Q100.13-4.45 99.66-4.36L99.66-4.36L99.66-5.44Q99.70-5.44 99.84-5.44L99.84-5.44Q100.50-5.34 101.11-5.34L101.11-5.34L101.67-5.34L101.67-6.98L100.73-6.98Q100.17-6.98 99.52-6.94L99.52-6.94Q99.33-6.94 99.28-6.94L99.28-6.94L99.28-7.97Q99.33-7.97 99.47-7.97L99.47-7.97Q100.27-7.88 100.73-7.88L100.73-7.88L101.67-7.88L101.67-8.67Q101.63-9.38 101.58-9.66ZM96.98-9.61L96.98-9.61Q98.16-9.52 98.20-9.38L98.20-9.38Q98.20-9.33 98.16-9.23L98.16-9.23Q97.97-8.95 97.97-8.53L97.97-8.53L97.97-7.03Q98.34-7.03 98.86-7.08L98.86-7.08Q99.05-7.08 99.09-7.08L99.09-7.08L99.09-6.05Q99.05-6.05 98.95-6.05L98.95-6.05Q98.44-6.14 97.97-6.14L97.97-6.14L97.97-4.36L99.33-4.83L99.38-3.89L97.97-3.42L97.97 0Q98.11 0.94 96.33 1.13L96.33 1.13Q96.23 0.56 95.86 0L95.86 0Q97.22 0.19 97.03-0.38L97.03-0.38L97.03-3.19L95.34-2.63L95.11-3.66L97.03-4.08L97.03-6.14L96.42-6.14Q95.95-6.14 95.39-6.05L95.39-6.05Q95.25-6.05 95.20-6.05L95.20-6.05L95.20-7.13Q95.25-7.13 95.39-7.13L95.39-7.13Q95.91-7.03 96.38-7.03L96.38-7.03L97.03-7.03L97.03-8.48Q97.03-8.86 96.98-9.42L96.98-9.42Q96.98-9.56 96.98-9.61ZM103.69-4.45L100.88-4.45Q101.34-2.67 102.19-1.78L102.19-1.78Q102.80-2.44 103.69-4.45L103.69-4.45ZM114-9.75L114-9.75Q115.27-9.38 115.27-9.23L115.27-9.23Q115.27-9.19 115.17-9.14L115.17-9.14Q114.98-9.05 114.94-8.86L114.94-8.86Q114.52-8.16 114.28-7.41L114.28-7.41L116.02-7.41Q117.05-7.41 117.61-7.45L117.61-7.45Q117.23-1.31 117.14-0.23L117.14-0.23Q117 1.08 114.56 1.17L114.56 1.17Q114.42 0.47 114-0.05L114-0.05Q115.27 0.19 115.92-0.09L115.92-0.09Q116.25-0.05 116.39-4.27L116.39-4.27Q116.48-5.77 116.53-6.66L116.53-6.66L113.95-6.66Q113.48-5.77 112.83-4.59L112.83-4.59Q112.41-4.88 111.98-4.97L111.98-4.97L111.98-0.75Q111.98 0.42 112.03 0.75L112.03 0.75L110.95 0.75Q111 0.33 111-0.38L111-0.38L108.70-0.38Q108.70 0.33 108.75 0.84L108.75 0.84L107.67 0.84Q107.72 0.42 107.72-0.70L107.72-0.70L107.72-5.72Q107.72-5.91 107.67-6.61L107.67-6.61Q107.67-7.22 107.67-7.36L107.67-7.36Q108.38-7.31 108.70-7.31L108.70-7.31L109.03-7.31Q109.17-8.06 109.27-9.61L109.27-9.61Q110.58-9.47 110.48-9.28L110.48-9.28Q110.48-9.19 110.39-9.09L110.39-9.09Q110.30-9 110.25-8.86L110.25-8.86Q110.11-8.53 109.97-7.92L109.97-7.92Q109.88-7.55 109.83-7.31L109.83-7.31L110.63-7.31Q111-7.31 112.03-7.36L112.03-7.36Q111.98-7.03 111.98-5.86L111.98-5.86L111.98-5.20Q113.44-6.84 114-9.75ZM111-6.56L108.70-6.56L108.70-4.13L111-4.13L111-6.56ZM113.20-4.17L114-4.64Q114.28-4.27 114.98-2.91L114.98-2.91Q115.17-2.63 115.22-2.48L115.22-2.48L114.33-2.02Q114.19-2.58 113.20-4.17L113.20-4.17ZM111-3.42L108.70-3.42L108.70-1.13L111-1.13L111-3.42ZM123.98-9.80L123.98-9.80Q124.97-9.52 125.20-9.38L125.20-9.38Q125.20-9.28 125.06-9.23L125.06-9.23Q124.92-9.14 124.88-9.05L124.88-9.05Q126.33-6.09 130.03-5.25L130.03-5.25Q129.52-4.92 129.05-4.13L129.05-4.13Q125.58-5.77 124.36-8.34L124.36-8.34Q123.14-5.95 119.95-3.80L119.95-3.80Q119.44-4.41 118.92-4.64L118.92-4.64Q122.77-6.33 123.98-9.80ZM123.75-5.95L123.75-5.95Q123.84-5.95 123.98-5.95L123.98-5.95Q125.20-5.86 125.16-5.81L125.16-5.81Q125.16-5.77 125.11-5.72L125.11-5.72Q124.92-5.30 124.92-4.83L124.92-4.83L124.92-0.47Q124.92 0.66 125.02 1.22L125.02 1.22L123.75 1.22Q123.84 0.56 123.84-0.47L123.84-0.47L123.84-4.55Q123.84-5.06 123.80-5.58L123.80-5.58Q123.75-5.86 123.75-5.95ZM135.84-9.66L135.84-9.66Q135.98-9.66 136.27-9.61L136.27-9.61Q137.48-9.52 137.39-9.42L137.39-9.42Q137.39-9.38 137.30-9.23L137.30-9.23Q137.02-8.95 137.02-8.44L137.02-8.44L137.02-6.94Q137.53-1.88 142.17-0.23L142.17-0.23Q142.17-0.23 142.08-0.19L142.08-0.19Q141.52 0.05 141.05 0.84L141.05 0.84Q137.11-1.31 136.55-5.39L136.55-5.39Q136.13-1.55 132.33 1.13L132.33 1.13Q131.91 0.70 131.30 0.38L131.30 0.38Q131.16 0.28 131.16 0.28L131.16 0.28Q133.55-0.70 134.91-3.14L134.91-3.14Q136.17-5.63 135.84-9.66ZM149.44-9.70L149.44-9.70Q150.42-9.70 150.56-9.61L150.56-9.61Q150.33-9.42 150.38-8.25L150.38-8.25L151.88-8.25Q151.64-8.77 151.22-9.23L151.22-9.23L151.97-9.52Q152.25-9.28 152.67-8.58L152.67-8.58L151.97-8.25L152.30-8.25Q153.09-8.25 153.84-8.34L153.84-8.34L153.84-7.45Q153.23-7.59 152.30-7.55L152.30-7.55L150.38-7.55L150.38-6.75L151.92-6.75Q152.53-6.75 153-6.84L153-6.84Q152.91-6.42 152.91-5.95L152.91-5.95L152.91-4.03Q152.91-3.28 153-2.81L153-2.81L152.06-2.81L152.06-3.42L150.38-3.42Q150.38-3 150.47-2.53L150.47-2.53L149.39-2.53Q149.53-2.63 149.53-3.42L149.53-3.42L147.84-3.42L147.84-2.63L146.91-2.63Q147-3.05 147-3.70L147-3.70L147-5.91Q147-6.47 146.91-6.84L146.91-6.84Q147.42-6.75 147.89-6.75L147.89-6.75L149.53-6.75L149.53-7.55L147.89-7.55Q147.19-7.55 146.48-7.50L146.48-7.50L146.48-8.34Q147.42-8.25 147.89-8.25L147.89-8.25L149.53-8.25Q149.53-9.19 149.44-9.70ZM144.28-9.66L144.28-9.66Q145.50-9.66 145.55-9.52L145.55-9.52Q145.50-9.42 145.41-9.28L145.41-9.28Q145.27-9 145.27-8.86L145.27-8.86L145.27-6.47Q145.45-6.47 145.73-6.52L145.73-6.52Q146.16-6.52 146.39-6.56L146.39-6.56L146.39-5.63Q145.97-5.67 145.27-5.67L145.27-5.67L145.27-1.17Q145.27 0.33 145.41 1.03L145.41 1.03L144.28 1.03Q144.28 0.89 144.33 0.66L144.33 0.66Q144.42-0.09 144.42-1.13L144.42-1.13L144.42-5.67Q143.67-5.72 143.06-5.58L143.06-5.58L143.06-6.56Q143.67-6.47 144.42-6.47L144.42-6.47L144.42-8.39Q144.42-8.63 144.33-9.38L144.33-9.38Q144.28-9.56 144.28-9.66ZM149.53-6.05L147.84-6.05L147.84-5.44L149.53-5.44L149.53-6.05ZM152.06-6.05L150.38-6.05L150.38-5.44L152.06-5.44L152.06-6.05ZM152.06-4.73L150.38-4.73L150.38-4.13L152.06-4.13L152.06-4.73ZM149.53-4.73L147.84-4.73L147.84-4.13L149.53-4.13L149.53-4.73ZM151.31-2.72L151.31-2.72Q152.20-2.72 152.44-2.58L152.44-2.58Q152.44-2.58 152.39-2.48L152.39-2.48Q152.25-2.30 152.30-2.25L152.30-2.25L152.30-2.02L152.77-2.02Q153.80-2.02 154.22-2.11L154.22-2.11L154.22-1.22Q153.47-1.31 152.77-1.31L152.77-1.31L152.30-1.31L152.30 0.19Q152.48 0.98 150.61 1.17L150.61 1.17Q150.61 0.70 150.05 0.05L150.05 0.05Q151.08 0.28 151.27 0.09L151.27 0.09Q151.41 0 151.41-0.89L151.41-0.89Q151.41-1.17 151.41-1.31L151.41-1.31L147.47-1.31Q146.95-1.31 145.92-1.22L145.92-1.22L145.92-2.11Q146.86-2.02 147.47-2.02L147.47-2.02L151.41-2.02Q151.45-2.25 151.31-2.72ZM147.61-0.75L148.45-1.17Q148.83-0.80 149.30 0L149.30 0L148.31 0.47Q148.03-0.19 147.61-0.75L147.61-0.75ZM159.89-9.47L161.06-9.56Q161.11-9.23 161.25-8.77L161.25-8.77Q161.34-8.48 161.39-8.34L161.39-8.34L163.13-8.34Q164.11-8.34 165.33-8.44L165.33-8.44Q165.38-8.44 165.38-8.34L165.38-8.34Q165.28-7.17 165.38-6.38L165.38-6.38L164.16-6.38Q164.25-6.98 164.25-7.59L164.25-7.59L156.89-7.59Q156.89-6.80 156.94-6.38L156.94-6.38L155.77-6.38Q155.95-7.83 155.81-8.39L155.81-8.39Q155.81-8.44 155.91-8.44L155.91-8.44Q156.70-8.34 157.73-8.34L157.73-8.34L160.27-8.34Q160.22-8.72 159.89-9.47L159.89-9.47ZM158.91-7.36L158.91-7.36Q160.03-7.08 160.03-6.94L160.03-6.94Q159.98-6.89 159.84-6.80L159.84-6.80Q159.61-6.61 159.38-6.38L159.38-6.38Q162.66-6.38 163.78-6.47L163.78-6.47Q163.83-6.47 163.83-6.42L163.83-6.42Q163.83-6.42 163.83-6.38L163.83-6.38Q163.22-5.25 161.53-4.03L161.53-4.03Q163.64-3.28 165.98-3.28L165.98-3.28Q165.94-3.23 165.89-3.14L165.89-3.14Q165.47-2.48 165.42-2.16L165.42-2.16Q164.63-2.25 163.97-2.39L163.97-2.39Q163.92-2.11 163.92-0.94L163.92-0.94Q163.92-0.42 163.97 0.52L163.97 0.52Q163.97 0.94 163.97 1.03L163.97 1.03L162.89 1.03Q162.89 0.80 162.94 0.38L162.94 0.38L158.39 0.38Q158.39 0.66 158.44 0.89L158.44 0.89L157.36 0.89Q157.45 0.42 157.45-0.52L157.45-0.52Q157.45-1.73 157.36-2.39L157.36-2.39Q156.42-2.16 155.91-2.06L155.91-2.06Q155.72-2.53 155.20-2.95L155.20-2.95Q157.78-3.23 159.66-3.98L159.66-3.98Q159.28-4.27 158.30-5.25L158.30-5.25Q158.11-5.06 157.55-4.59L157.55-4.59Q157.27-4.31 157.22-4.27L157.22-4.27L156.33-4.88Q157.97-5.91 158.91-7.36ZM162.23-5.67L162.23-5.67L158.95-5.67Q159.70-4.97 160.69-4.45L160.69-4.45Q161.53-4.97 162.23-5.67ZM160.59-3.56L160.59-3.56Q159-2.86 157.55-2.44L157.55-2.44Q158.16-2.39 158.67-2.39L158.67-2.39L162.61-2.39Q163.27-2.39 163.88-2.44L163.88-2.44Q161.81-2.95 160.59-3.56ZM162.94-1.69L158.39-1.69L158.39-0.23L162.94-0.23L162.94-1.69Z"
            transform="translate(-0.421875, 9.796875)"></path>
        </g>
      </g>
    </g>
  </g>
</svg>
